<?xml version="1.0" encoding="UTF-8"?>
<svg width="91.44mm" height="91.44mm" clip-rule="evenodd" fill-rule="evenodd" image-rendering="optimizeQuality" shape-rendering="geometricPrecision" text-rendering="geometricPrecision" version="1.1" viewBox="0 0 9144 9144" xmlns="http://www.w3.org/2000/svg">
 <defs>
  <style type="text/css">.fil1 {fill:white;fill-rule:nonzero} .fil0 {fill:url(#a)}</style>
  <linearGradient id="a" x1="8595.4" x2="548.64" y1="8595.4" y2="548.63" gradientUnits="userSpaceOnUse">
   <stop stop-color="#48CFAE" offset="0"/>
   <stop stop-color="#4FC0E8" offset="1"/>
  </linearGradient>
 </defs>
 <polygon class="fil0" points="0 0 9144 0 9144 9144 0 9144"/>
 <path class="fil1" d="m4166 4115h-458v508l458 1c46 0 84 37 84 84l1 1812h507v-1812c0-47 38-85 85-85h593v-508h-593c-47 0-85-38-85-85 0-218 0-377 14-500 15-137 48-228 116-291 2-1 4-3 6-5 59-52 137-78 245-90 80-9 177-11 297-11v-508c-294 0-520 2-689 22-170 21-281 60-350 136-71 79-107 203-126 394-21 203-21 482-21 853 0 47-38 85-84 85zm-542-170h457c0-331 2-585 22-784 23-228 71-383 169-491 100-111 243-165 455-191 196-24 452-24 793-24 47 0 85 38 85 85v677c0 47-38 85-85 85-156 0-276 0-363 10-72 8-121 22-151 48l-3 3c-35 32-53 90-63 186-11 95-12 225-12 396h592c47 0 85 38 85 85v678c0 46-38 84-85 84h-592v1812h-1c0 47-38 85-84 85l-677-1c-46 0-84-37-84-84l-1-1812h-457c-47 0-85-38-85-84v-678c0-47 38-85 85-85z"/>
</svg>
